PathFileType   4   (X/Y/Z)																																																																																																																							
DataRate	CameraRate	NumFrames	NumMarkers	Units	OrigDataRate	OrigDataStartFrame	OrigNumFrames																																																																																																																
120	120	6	37	mm	120	32	125																																																																																																																
Frame#	Time	Sternum	R.Acromium	L.Acromium	Top.Head	R.ASIS	L.ASIS	V.Sacral	R.Thigh.Upper	R.Thigh.Front	R.Thigh.Rear	R.Knee.Lat	R.Knee.Med	R.Shank.Upper	R.Shank.Front	R.Shank.Rear	R.Ankle.Lat	R.Ankle.Med	R.Heel	R.Midfoot.Sup	R.Midfoot.Lat	R.Toe.Lat	R.Toe.Med	R.Toe.Tip	L.Thigh.Upper	L.Thigh.Front	L.Thigh.Rear	L.Knee.Lat	L.Knee.Med	L.Shank.Upper	L.Shank.Front	L.Shank.Rear	L.Ankle.Lat	L.Ankle.Med	L.Heel	L.Midfoot.Sup	L.Midfoot.Lat	L.Toe.Lat	L.Toe.Med	L.Toe.Tip																																																																															
 	 	X1	Y1	Z1	X2	Y2	Z2	X3	Y3	Z3	X4	Y4	Z4	X5	Y5	Z5	X6	Y6	Z6	X7	Y7	Z7	X8	Y8	Z8	X9	Y9	Z9	X10	Y10	Z10	X11	Y11	Z11	X12	Y12	Z12	X13	Y13	Z13	X14	Y14	Z14	X15	Y15	Z15	X16	Y16	Z16	X17	Y17	Z17	X18	Y18	Z18	X19	Y19	Z19	X20	Y20	Z20	X21	Y21	Z21	X22	Y22	Z22	X23	Y23	Z23	X24	Y24	Z24	X25	Y25	Z25	X26	Y26	Z26	X27	Y27	Z27	X28	Y28	Z28	X29	Y29	Z29	X30	Y30	Z30	X31	Y31	Z31	X32	Y32	Z32	X33	Y33	Z33	X34	Y34	Z34	X35	Y35	Z35	X36	Y36	Z36	X37	Y37	Z37							
																																																																																																																							
	32	0.38333	341.8992334	-0.001002095	1256.348233	258.3254881	-161.9453511	1311.630129	261.0738496	165.1979949	1311.729182	330.9093106	-10.08809499	1548.31999	404.1817977	-117.7896216	867.8386206	409.1457992	119.399185	859.9421026	228.6885374	-5.611229398	887.1955095	472.9820792	-173.4115572	592.5044002	560.4940773	-67.95180237	560.7856314	523.1588852	-162.9734513	467.9214379	526.9107563	-142.5943975	363.6546238	533.5421648	-8.355853302	346.310252	483.2422536	-154.6508593	325.9282185	563.4402136	-93.81404015	279.7736506	492.9253887	-165.0122006	229.5700977	468.6773161	-136.9768135	-88.42909542	478.7027297	-37.22329306	-72.9975167	396.2781688	-79.10633289	-111.3909377	548.5827777	-41.71858376	-107.0384162	541.9598405	-155.3841374	-127.6555244	635.4146541	-165.0174344	-157.8232238	638.5813115	-50.15543807	-144.1180243	703.0710205	-83.79364801	-146.8818553	322.9015097	178.8034865	550.6270963	403.2019542	95.03600439	494.2457389	297.2523039	161.7547942	432.546928	250.3981242	144.5366564	293.4321445	251.8409591	15.87918741	294.0461009	246.8741814	162.4477689	269.2359652	288.3258067	100.5194763	207.3347588	221.3437051	174.5177999	224.0377573	193.3780137	136.4325857	-126.0146839	201.3512258	34.31683281	-100.8223655	109.4107426	76.11439987	-140.5439168	291.8366647	48.15109198	-148.1355028	272.3928232	152.6198727	-147.0319058	337.8980661	163.716336	-175.4099037	355.9201925	55.50675189	-176.4542748	408.0003493	82.30973808	-178.5296993
	33	0.39167	350.5709866	-0.001002095	1255.452447	266.9834751	-161.9453511	1310.713526	269.7318119	165.1979949	1310.813263	339.5083446	-10.08809499	1547.421458	412.8426136	-117.7896216	866.7314432	417.7919441	119.399185	858.8257216	237.385598	-5.611229398	886.414158	481.449943	-173.4115572	591.5385561	568.9559053	-67.95180237	559.8031393	531.603047	-162.9734513	466.9460502	535.3350818	-142.5943975	362.6785243	541.9631906	-8.355853302	345.3328912	494.4384688	-154.6508593	323.6395711	576.9524789	-93.81404015	281.7660107	509.1751297	-165.0122006	227.9239435	501.6823634	-136.9768135	-90.91036191	510.8824483	-37.22329306	-74.97295378	430.2245297	-79.10633289	-116.6051008	582.2432776	-41.71858376	-106.312451	576.4299347	-155.3841374	-127.1723046	670.9908096	-165.0174344	-153.6701007	673.6202316	-50.15543807	-139.8517667	738.1686726	-83.79364801	-140.0968849	329.0264759	178.8034865	549.5887451	408.746579	95.03600439	492.3897589	302.1719739	161.7547942	431.7768458	253.8986571	144.5366564	293.1481185	255.3476906	15.87918741	293.7472988	249.9211945	162.4477689	268.9945615	290.5638296	100.5194763	206.5592126	223.8047444	174.5177999	224.132392	191.2864132	136.4325857	-125.5265128	199.5867616	34.31683281	-100.4400775	107.2735301	76.11439987	-139.8112464	289.68118	48.15109198	-147.8298793	270.2399754	152.6198727	-146.6807664	335.6786046	163.716336	-175.2120374	353.6982367	55.50675189	-176.2985963	405.7733921	82.30973808	-178.4959373
	34	0.4	359.2741054	-0.001002095	1254.472479	275.6624511	-161.9453511	1309.697023	278.410744	165.1979949	1309.797961	348.0838649	-10.08809499	1546.436627	421.5968337	-117.7896216	865.5296141	426.5313179	119.399185	857.6146174	246.1770678	-5.611229398	885.5415936	489.9834108	-173.4115572	590.45789	577.4789381	-67.95180237	558.6937149	540.0955632	-162.9734513	465.8489073	543.793329	-142.5943975	361.5801604	550.4157365	-8.355853302	344.2323499	505.5846564	-154.6508593	321.4147377	590.0850186	-93.81404015	283.7100205	525.0783026	-165.0122006	226.5535323	533.501793	-136.9768135	-92.25754134	541.8952894	-37.22329306	-75.88098009	463.0168816	-79.10633289	-120.4723288	614.5581696	-41.71858376	-104.6332517	609.5107246	-155.3841374	-125.6915457	704.9764579	-165.0174344	-148.7173143	707.0993363	-50.15543807	-134.8121498	771.6136484	-83.79364801	-132.6991275	335.3193925	178.8034865	548.4843739	414.4699594	95.03600439	490.4998361	307.3011673	161.7547942	430.9437981	257.6593179	144.5366564	292.7992219	259.1142059	15.87918741	293.3840434	253.1813322	162.4477689	268.6963519	292.9812483	100.5194763	205.7204575	226.464352	174.5177999	224.1892043	189.2500018	136.4325857	-125.0011216	197.8867294	34.31683281	-100.0284975	105.1869723	76.11439987	-139.0067756	287.5718953	48.15109198	-147.5266996	268.1339222	152.6198727	-146.3241596	333.4938902	163.716336	-175.0351716	351.510468	55.50675189	-176.1712508	403.5793875	82.30973808	-178.5117046
	35	0.40833	368.015846	-0.001002095	1253.421021	284.3712616	-161.9453511	1308.595676	287.1194938	165.1979949	1308.698253	356.6514322	-10.08809499	1545.378442	430.4453479	-117.7896216	864.2539216	435.3653059	119.399185	856.3298872	255.0625839	-5.611229398	884.5876289	498.6199866	-173.4115572	589.303878	586.1058901	-67.95180237	557.5132065	548.6943991	-162.9734513	464.6797247	552.3605871	-142.5943975	360.4098627	558.9777406	-8.355853302	343.0600474	516.7087496	-154.6508593	319.2904042	602.8807349	-93.81404015	285.5806747	540.6195137	-165.0122006	225.445181	563.9506519	-136.9768135	-92.62260079	571.5687116	-37.22329306	-75.8712514	494.4525074	-79.10633289	-123.1548645	645.3657839	-41.71858376	-102.1591192	641.0391262	-155.3841374	-123.377236	737.2342981	-165.0174344	-143.1353017	738.8819312	-50.15543807	-129.1658522	803.2867173	-83.79364801	-124.854837	341.7903181	178.8034865	547.3267553	420.3838964	95.03600439	488.5894731	312.651603	161.7547942	430.0589285	261.6936113	144.5366564	292.394408	263.1540142	15.87918741	292.965318	256.6680221	162.4477689	268.3519592	295.5911889	100.5194763	204.8304378	229.3366832	174.5177999	224.2194186	187.2856881	136.4325857	-124.4215218	196.2677381	34.31683281	-99.57101288	103.1674364	76.11439987	-138.1079041	285.5239272	48.15109198	-147.2161133	266.0899344	152.6198727	-145.9508774	331.3569475	163.716336	-174.8725754	349.3697669	55.50675189	-176.0667658	401.4308658	82.30973808	-178.5751692
	36	0.41667	376.8022862	-0.001002095	1252.31182	293.1174823	-161.9453511	1307.425454	295.865639	165.1979949	1307.530036	365.2249357	-10.08809499	1544.260875	439.3880851	-117.7896216	862.9252808	444.2942725	119.399185	854.992713	264.0409029	-5.611229398	883.563577	507.3891672	-173.4115572	588.1133924	594.8704221	-67.95180237	556.3099309	557.4453592	-162.9734513	463.4819196	561.096303	-142.5943975	359.2115228	567.7109199	-8.355853302	341.8607402	527.8317563	-154.6508593	317.2940246	615.3840454	-93.81404015	287.3515198	555.7882125	-165.0122006	224.5735463	592.8855848	-136.9768135	-92.18383851	599.770316	-37.22329306	-75.11799495	524.3738214	-79.10633289	-124.8435877	674.5449179	-41.71858376	-99.06995506	670.8936869	-155.3841374	-120.4146725	767.6673436	-165.0174344	-137.1105289	768.8708982	-50.15543807	-123.0958341	833.1064673	-83.79364801	-116.7434338	348.4436266	178.8034865	546.1293769	426.4934975	95.03600439	486.671522	318.2272843	161.7547942	429.1345883	266.0049397	144.5366564	291.9447058	267.4705332	15.87918741	292.502156	260.3865972	162.4477689	267.9740338	298.3996222	100.5194763	203.9037091	232.4284567	174.5177999	224.2358858	185.408123	136.4325857	-123.7696885	194.7437696	34.31683281	-99.04984392	101.2292109	76.11439987	-137.0913157	283.5500694	48.15109198	-146.8869163	264.1209844	152.6198727	-145.5484262	329.2785034	163.716336	-174.7159654	347.2866928	55.50675189	-175.9780529	399.3379655	82.30973808	-178.6827007
	37	0.425	385.6381213	-0.001002095	1251.159051	301.9071229	-161.9453511	1306.202478	304.6551909	165.1979949	1306.309365	373.8159163	-10.08809499	1543.098293	448.4241835	-117.7896216	861.5637023	453.3177078	119.399185	853.6233164	273.1101542	-5.611229398	882.4817495	516.3114649	-173.4115572	586.9172476	603.7960037	-67.95180237	555.1228208	566.3805278	-162.9734513	462.2909449	570.04224	-142.5943975	358.0209257	576.6586488	-8.355853302	340.6708263	538.9671527	-154.6508593	315.4439251	627.6377261	-93.81404015	288.9961212	570.577689	-165.0122006	223.9047283	620.2042773	-136.9768135	-91.13282114	626.4069911	-37.22329306	-73.80743858	552.6670838	-79.10633289	-125.7430324	702.01361	-41.71858376	-95.55605738	698.9928493	-155.3841374	-116.9990855	796.2164076	-165.0174344	-130.8364252	797.006521	-50.15543807	-116.792354	861.0270406	-83.79364801	-108.5501216	355.2785415	178.8034865	544.9058927	432.7978057	95.03600439	484.7578874	324.0253624	161.7547942	428.183801	270.5878679	144.5366564	291.4626566	272.0583497	15.87918741	292.0070814	264.3350239	162.4477689	267.5766036	301.4057977	100.5194763	202.9565269	235.7394273	174.5177999	224.2525333	183.6283218	136.4325857	-123.0272159	193.3249379	34.31683281	-98.44672259	99.38315153	76.11439987	-135.9336779	281.659395	48.15109198	-146.5270857	262.2363538	152.6198727	-145.1035798	327.2656013	163.716336	-174.5559922	345.2680949	55.50675189	-175.8968778	397.3070327	82.30973808	-178.8292947
